<svg xmlns="http://www.w3.org/2000/svg" viewBox="0 0 500 120" width="500" height="120">
  <defs>
    <linearGradient id="phoenixGrad2" x1="0%" y1="0%" x2="100%" y2="100%">
      <stop offset="0%" style="stop-color:#FF6B2B;stop-opacity:1" />
      <stop offset="100%" style="stop-color:#FFB347;stop-opacity:1" />
    </linearGradient>
  </defs>
  
  <!-- Phoenix Icon -->
  <g transform="translate(50,60)">
    <path d="M0,-30 C-10,-24 -15,-12 -12,0 C-9,12 -5,20 0,26 C5,20 9,12 12,0 C15,-12 10,-24 0,-30Z" 
          fill="url(#phoenixGrad2)"/>
    <path d="M-8,-14 C-18,-20 -28,-18 -32,-10 C-28,-8 -20,-4 -12,-8Z" 
          fill="url(#phoenixGrad2)" opacity="0.8"/>
    <path d="M8,-14 C18,-20 28,-18 32,-10 C28,-8 20,-4 12,-8Z" 
          fill="url(#phoenixGrad2)" opacity="0.8"/>
    <circle cx="0" cy="-28" r="6" fill="#FF6B2B"/>
    <circle cx="2.5" cy="-29" r="2" fill="#0A1628"/>
  </g>
  
  <!-- ZYRAKON Text -->
  <text x="120" y="55" font-family="Arial, sans-serif" font-size="42" font-weight="800" 
        fill="#FFFFFF" letter-spacing="3">ZYRA<span fill="url(#phoenixGrad2)">KON</span></text>
  
  <!-- Tagline -->
  <text x="122" y="78" font-family="Arial, sans-serif" font-size="12" font-weight="400" 
        fill="#94A3B8" letter-spacing="4" text-transform="uppercase">THE FOUNDATION OF INTELLIGENT TECHNOLOGY</text>
</svg>
